HIERARCHY
ROOT Pelvis
{
	OFFSET 0.000000 0.000000 0.000000
	CHANNELS 6 Xposition Yposition Zposition Zrotation Yrotation Xrotation 
	JOINT Left_hip
	{
		OFFSET 0.068973 -0.091024 -0.007589
		CHANNELS 3 Zrotation Yrotation Xrotation
		JOINT Left_knee
		{
			OFFSET 0.036482 -0.391037 -0.003979
			CHANNELS 3 Zrotation Yrotation Xrotation
			JOINT Left_ankle
			{
				OFFSET -0.012239 -0.415469 -0.043440
				CHANNELS 3 Zrotation Yrotation Xrotation
				JOINT Left_foot
				{
					OFFSET 0.023806 -0.058558 0.118702
					CHANNELS 3 Zrotation Yrotation Xrotation
					End Site
					{
						OFFSET 0.000000 0.000000 0.000000
					}
				}
			}
		}
	}
	JOINT Right_hip
	{
		OFFSET -0.066552 -0.090468 -0.003847
		CHANNELS 3 Zrotation Yrotation Xrotation
		JOINT Right_knee
		{
			OFFSET -0.042435 -0.398340 -0.006400
			CHANNELS 3 Zrotation Yrotation Xrotation
			JOINT Right_ankle
			{
				OFFSET 0.014931 -0.415421 -0.041327
				CHANNELS 3 Zrotation Yrotation Xrotation
				JOINT Right_foot
				{
					OFFSET -0.021472 -0.049410 0.121889
					CHANNELS 3 Zrotation Yrotation Xrotation
					End Site
					{
						OFFSET 0.000000 0.000000 0.000000
					}
				}
			}
		}
	}
	JOINT Spine1
	{
		OFFSET -0.002904 0.105700 -0.022855
		CHANNELS 3 Zrotation Yrotation Xrotation
		JOINT Spine2
		{
			OFFSET 0.004179 0.132554 -0.002501
			CHANNELS 3 Zrotation Yrotation Xrotation
			JOINT Spine3
			{
				OFFSET 0.001987 0.049603 0.025988
				CHANNELS 3 Zrotation Yrotation Xrotation
				JOINT Neck
				{
					OFFSET -0.003935 0.211336 -0.045638
					CHANNELS 3 Zrotation Yrotation Xrotation
					JOINT Head
					{
						OFFSET 0.003906 0.065991 0.051018
						CHANNELS 3 Zrotation Yrotation Xrotation
						End Site
						{
							OFFSET 0.000000 0.000000 0.000000
						}
					}
				}
				JOINT Left_collar
				{
					OFFSET 0.072882 0.117751 -0.036270
					CHANNELS 3 Zrotation Yrotation Xrotation
					JOINT Left_shoulder
					{
						OFFSET 0.082118 0.032630 -0.005771
						CHANNELS 3 Zrotation Yrotation Xrotation
						JOINT Left_elbow
						{
							OFFSET 0.263305 -0.015144 -0.028095
							CHANNELS 3 Zrotation Yrotation Xrotation
							JOINT Left_wrist
							{
								OFFSET 0.250741 0.010115 -0.000759
								CHANNELS 3 Zrotation Yrotation Xrotation
								JOINT Left_palm
								{
									OFFSET 0.080683 -0.009989 -0.013613
									CHANNELS 3 Zrotation Yrotation Xrotation
									End Site
									{
										OFFSET 0.000000 0.000000 0.000000
									}
								}
							}
						}
					}
				}
				JOINT Right_collar
				{
					OFFSET -0.074811 0.116132 -0.040385
					CHANNELS 3 Zrotation Yrotation Xrotation
					JOINT Right_shoulder
					{
						OFFSET -0.085089 0.032943 -0.007484
						CHANNELS 3 Zrotation Yrotation Xrotation
						JOINT Right_elbow
						{
							OFFSET -0.254763 -0.014219 -0.020321
							CHANNELS 3 Zrotation Yrotation Xrotation
							JOINT Right_wrist
							{
								OFFSET -0.256597 0.009233 -0.005063
								CHANNELS 3 Zrotation Yrotation Xrotation
								JOINT Right_palm
								{
									OFFSET -0.080528 -0.007219 -0.010379
									CHANNELS 3 Zrotation Yrotation Xrotation
									End Site
									{
										OFFSET 0.000000 0.000000 0.000000
									}
								}
							}
						}
					}
				}
			}
		}
	}
}
MOTION
Frames: 8
Frame Time: 0.100000
0.000000 0.000000 0.000000 171.788864 24.926819 -21.565114 5.840327 8.941883 17.022358 -3.490309 5.047793 -8.246846 -2.268584 11.393093 -0.412224 2.325755 7.725416 -2.424916 -4.573623 -5.431261 9.274401 2.418409 -6.052157 -1.450015 5.812383 -5.956699 3.094094 -2.032365 -2.927832 2.053877 -0.350781 0.425429 0.733373 0.745191 -2.358897 14.591110 0.665563 -1.337484 0.777956 2.798812 5.236415 7.535234 2.655088 -3.974157 -9.553441 -25.160853 -4.337547 10.119678 -49.834094 -2.054908 8.326942 3.781552 -19.635436 11.370632 -14.175624 -11.020723 11.176730 -7.911982 -1.627283 -22.198724 24.528810 9.853479 9.677370 54.696372 1.399504 11.449111 -8.758025 18.723306 2.870597 6.387766 6.771179 3.751737 8.986029 2.739478 -7.956557 
-0.011321 0.002450 -0.014760 171.194648 24.926737 -22.038638 5.225880 8.842412 16.787832 -3.622167 4.802527 -8.191647 -1.522593 11.190643 -0.842963 2.102959 8.060348 -2.118443 -5.066514 -5.320577 6.633797 1.877972 -6.832454 2.890964 6.050097 -5.794431 3.535176 -2.274896 -2.712962 1.392051 -0.559082 0.131652 1.917746 0.856127 -2.438861 15.211724 0.648774 -1.418023 0.239429 2.700850 5.683575 7.339619 2.918688 -3.935921 -9.825039 -24.944371 -6.411528 9.854066 -48.902852 -4.055535 8.214967 4.181372 -23.148717 9.971976 -13.184413 -11.329605 11.065192 -8.093724 -1.737857 -21.776584 24.441870 11.154105 9.877026 54.134928 2.047072 11.139151 -9.868502 20.642015 1.503697 6.380561 7.124549 3.854806 9.033258 2.825768 -7.980197 
-0.018795 0.003500 -0.026332 170.407891 25.235848 -22.963072 4.929628 8.660952 16.910228 -3.452247 4.192073 -8.004145 -0.897849 10.888624 -1.055038 2.059731 8.734378 -2.060913 -5.173030 -4.949289 2.809160 1.077079 -8.179689 10.474857 6.024160 -6.158196 3.285241 -2.565679 -2.490533 0.678949 -0.953579 -0.561307 2.819613 1.201762 -2.675253 15.975474 0.764454 -1.671195 -0.334752 2.699941 6.573817 7.735334 3.036273 -4.055289 -10.376122 -24.058898 -9.278384 9.714179 -47.889181 -6.015646 8.043509 4.903210 -26.926099 8.160797 -12.606904 -11.229309 11.230832 -8.917933 -2.250962 -21.898491 23.916680 13.048796 9.955427 53.552376 2.518219 10.953798 -11.592722 24.524182 0.053562 6.473680 7.745480 3.543869 9.742075 2.977325 -8.106777 
-0.022570 0.003524 -0.030595 169.533930 26.184474 -23.727321 4.752124 8.483263 17.049835 -2.897888 3.013849 -7.959680 -0.489952 10.907775 -1.227815 2.202928 9.094824 -1.916739 -3.557009 -4.382745 -1.290383 0.521216 -9.200614 17.625145 4.884287 -6.986148 0.707765 -2.809951 -1.750580 0.908457 -1.685123 -1.366064 3.897260 1.599779 -3.077720 16.164996 0.899252 -1.994553 -1.432522 2.743174 7.092565 7.194235 3.279346 -4.148863 -11.079738 -23.346064 -11.126536 8.727954 -45.996325 -6.594411 8.294197 5.443174 -30.150779 6.171949 -11.577150 -10.339757 12.011090 -10.164267 -3.376452 -21.693584 24.128665 14.125017 9.129235 52.958017 1.917513 11.192411 -12.540600 28.160271 -0.450990 6.782006 8.206206 4.164244 10.880245 3.491885 -7.770498 
-0.025959 0.002657 -0.026903 168.705376 27.829400 -23.978188 4.652804 8.127966 17.142857 -2.443094 1.832202 -8.281789 -0.738231 10.716915 -1.101563 2.319253 9.117299 -2.124166 -0.713341 -3.641860 -2.926577 1.647746 -8.430280 15.549553 4.976589 -7.127095 0.832774 -3.927594 -0.857047 1.519124 -2.431314 -1.765662 4.328572 1.753529 -3.601220 15.424774 1.180367 -2.300222 -2.111789 2.331167 6.975092 5.302279 4.030635 -4.340874 -12.477979 -22.730808 -11.962094 7.878013 -44.904459 -6.650635 8.411736 6.073925 -31.065791 4.560312 -10.938037 -9.372129 12.626935 -10.954396 -4.239751 -21.388822 24.250134 14.310709 8.332149 53.274240 1.031203 11.486201 -12.518357 29.494838 0.017450 7.245278 7.966839 4.922096 11.901542 4.033062 -7.553926 
-0.030768 0.002312 -0.016415 168.478594 29.386943 -23.646582 4.394221 8.093211 18.095218 -2.084919 0.637578 -9.776214 -1.450846 10.759941 -0.937489 2.451838 8.538620 -2.062574 2.113332 -3.562742 -3.373123 2.793972 -8.510547 8.939484 4.670818 -8.084407 1.242669 -4.571483 -0.312434 2.514753 -3.085459 -1.795360 4.693991 1.590437 -3.563311 14.121224 1.475795 -2.269434 -2.533176 1.797821 6.209966 2.062814 5.207981 -4.682313 -15.177213 -22.629442 -11.950243 7.511722 -44.720013 -5.928331 8.607607 6.217167 -30.451479 3.676416 -10.407073 -8.888432 12.616025 -11.080774 -4.589024 -21.156486 24.475404 14.470545 7.950177 53.905806 -0.204889 11.555459 -11.498571 27.693100 1.024055 7.426546 7.534061 5.050302 12.148493 4.318307 -7.114519 
-0.037960 0.001336 -0.002112 168.572867 31.223176 -23.349952 3.978572 8.201751 19.284951 -1.737809 -0.523114 -10.789244 -2.145826 10.915724 -0.955989 2.579440 7.908677 -2.086490 4.155974 -4.204038 -4.582326 3.380176 -10.422321 5.658439 3.682210 -9.626353 1.477964 -4.265355 -0.320149 3.298211 -3.296640 -1.769088 5.014050 1.219906 -3.079019 13.256058 1.371951 -1.955694 -2.603789 1.648255 4.576712 0.388967 6.513389 -5.635460 -17.708280 -22.592173 -11.663030 7.620555 -45.426506 -5.020492 9.094440 5.851498 -28.200452 3.511315 -10.868751 -8.759717 12.611807 -10.955505 -4.636790 -21.343933 24.162953 15.361403 7.948906 54.951413 -1.233947 11.967636 -9.713539 24.324089 2.961808 7.908892 7.248076 4.771254 11.870405 4.284497 -6.509173 
-0.048670 -0.000095 0.017239 168.904579 33.678052 -23.689435 3.545273 8.146931 20.978662 -1.481452 -1.702127 -10.523067 -2.535903 10.675545 -1.408058 2.326849 8.115578 -2.378614 4.738571 -4.888700 -4.094513 3.442587 -11.917139 3.801386 2.909413 -10.955944 1.179635 -4.333977 -0.563856 3.583155 -2.937586 -1.723745 5.272993 0.736650 -2.719591 13.066101 1.130018 -1.880204 -1.721246 1.505115 3.532039 0.569663 6.970261 -6.237060 -19.485585 -23.181179 -11.322603 8.599723 -47.023592 -3.922723 8.561041 5.748298 -25.289451 3.003350 -11.462924 -8.182557 11.455634 -11.029582 -4.547751 -22.259489 23.236384 15.725794 8.208820 56.350632 -2.488383 12.238247 -9.074929 24.782609 4.019029 7.667309 7.327917 3.174587 12.012871 4.103693 -6.354948 
